<svg xmlns="http://www.w3.org/2000/svg" xml:space="preserve" width="1500" height="1500" data-id="lg_gBJLUfj94Hl6GqsmU0" data-version="1" viewBox="0 0 1500 1500"><path fill="#001f3f" stroke="transparent" d="M0 0h1500v1500H0z"/><g data-padding="20"><g transform="translate(-571.429 -581.346)scale(1.72194)"><rect width="439.425" height="256.284" x="282.535" y="540.855" fill="none" rx="0" ry="0" transform="matrix(.97 0 0 .97 347.32 124.24)"/><path fill="#b68e2f" d="M646.31 751.317h-19.58v-99.6h26.31q8.26 0 13.1 3.68t6.94 10.47q2.09 6.79 2.09 16.18 0 9.06-1.76 15.76-1.75 6.71-6.25 10.39t-12.76 3.68h-8.09Zm0-81.43v24.1h1.13q5.55 0 6.79-3.11 1.25-3.11 1.25-9.17 0-5.66-1.22-8.74t-5.74-3.08Zm50.25 82.34q-7.07 0-10.78-3.29-3.71-3.28-5.07-8.99-1.35-5.72-1.35-12.96 0-7.76 1.52-12.71 1.53-4.95 5.24-8.12t10.21-5.38l12.57-4.3v-8.71q0-6.85-4.47-6.85-4.08 0-4.08 5.55v5.09h-19.69q-.06-.45-.06-1.16v-1.61q0-12.68 5.97-17.97t18.93-5.29q6.79 0 12.17 2.4 5.37 2.41 8.52 7.11 3.14 4.69 3.14 11.6v64.68h-20.15v-10.07q-1.47 5.32-4.87 8.15-3.39 2.83-7.75 2.83m7.98-15.74q2.49 0 3.39-2.09.91-2.09.91-4.53v-23.65q-4.19 1.69-6.51 4.27-2.32 2.57-2.32 7.55v10.93q0 7.52 4.53 7.52m52.86 14.83h-20.25v-84.89h20.25v10.81q1.14-4.86 4.22-8.29 3.09-3.42 8.57-3.42 8.83 0 12.82 5.43t3.99 14.88v65.48h-19.97v-63.38q0-2.49-1.02-4.61-1.02-2.13-3.51-2.13-2.32 0-3.43 1.62-1.1 1.61-1.38 4.02-.29 2.4-.29 4.78Zm54.94.91q-8.2 0-11.06-3.49-2.86-3.48-2.86-10.66v-52.91h-5.71v-15.45h5.71v-18h19.7v18h5.71v15.45h-5.71v48.15q0 2.1.68 2.95.67.85 2.6.85 1.36 0 2.43-.23v13.81q-.68.22-4.24.87-3.57.66-7.25.66m38.77-.91h-20.83v-99.6h20.83v23.15q1.64-4.76 5.04-7.05 3.39-2.29 7.92-2.29 8.83 0 12.84 5.54 4.02 5.55 4.02 14.89v65.36h-20.48v-64.06q0-2.77-1.16-4.53-1.16-1.75-3.65-1.75-2.1 0-3.31 1.81-1.22 1.81-1.22 4.3Zm61.51.91q-9.05 0-14.43-3.4-5.37-3.4-7.69-9.79-2.32-6.4-2.32-15.39v-34.13q0-11.82 6.79-17.91 6.79-6.08 18.67-6.08 24.45 0 24.45 23.99v6.17q0 11.21-.23 15.05h-29.43v16.42q0 2.26.29 4.44.28 2.18 1.27 3.59.99 1.42 3.2 1.42 3.17 0 3.96-2.75.79-2.74.79-7.16v-8.15h20.15v4.81q0 9.51-2.35 15.93-2.35 6.43-7.92 9.68-5.58 3.26-15.2 3.26m-4.3-62.99v11.43h9.62v-11.43q0-4.58-1.13-6.59t-3.4-2.01q-2.43 0-3.76 1.92-1.33 1.93-1.33 6.68m57.72 62.08h-20.6v-84.89h20.6v9.45q1.47-4.92 5.21-7.69 3.73-2.77 9.39-2.77v16.92q-2.49 0-5.94.53-3.45.54-6.05 1.48-2.61.93-2.61 2.06Zm-319.16 116.56h-20.14v-99.6h30.56q7.64 0 11.54 3.48 3.91 3.48 5.24 9.73 1.33 6.26 1.33 14.69 0 8.15-2.07 13.01-2.07 4.87-7.78 6.74 4.7.96 6.59 4.67 1.9 3.7 1.9 9.59v37.69h-19.64v-38.99q0-4.36-1.78-5.41-1.78-1.04-5.75-1.04Zm.12-81.15v18.45h4.81q4.13 0 4.13-9 0-5.83-.91-7.64-.9-1.81-3.39-1.81Zm59.29 82.05q-25.35 0-25.35-26.31v-34.07q0-12 6.74-19.15 6.73-7.16 18.61-7.16 11.94 0 18.68 7.16 6.73 7.15 6.73 19.15v34.07q0 26.31-25.41 26.31m0-15.62q2.55 0 3.65-1.84 1.11-1.83 1.11-4.66v-41.48q0-7.42-4.76-7.42-4.75 0-4.75 7.42v41.48q0 2.83 1.1 4.66 1.11 1.84 3.65 1.84m66.78 15.62q-4.98 0-8.09-2.46t-4.98-7.5v9.06h-20.6v-99.6H760v23.77q1.87-4.7 5.18-7.33t9.47-2.63q8.32 0 11.75 6.05 3.42 6.06 3.42 15.85v41.76q0 6.51-1.78 11.74-1.78 5.24-5.49 8.27-3.71 3.02-9.48 3.02m-8.37-15.79q3.22 0 3.9-3.16.68-3.17.68-7.81v-33.17q0-4.69-.68-7.83t-3.85-3.14q-3.28 0-4.02 3.19-.73 3.2-.73 7.78v33.17q0 4.58.73 7.78.74 3.19 3.97 3.19m57.26 15.79q-25.35 0-25.35-26.31v-34.07q0-12 6.74-19.15 6.73-7.16 18.61-7.16 11.95 0 18.68 7.16 6.73 7.15 6.73 19.15v34.07q0 26.31-25.41 26.31m0-15.62q2.55 0 3.65-1.84 1.11-1.83 1.11-4.66v-41.48q0-7.42-4.76-7.42-4.75 0-4.75 7.42v41.48q0 2.83 1.1 4.66 1.11 1.84 3.65 1.84m50.31 15.62q-8.2 0-11.06-3.48t-2.86-10.66v-52.92h-5.71v-15.45h5.71v-17.99h19.7v17.99h5.71v15.45h-5.71v48.16q0 2.1.67 2.94.68.85 2.61.85 1.36 0 2.43-.22v13.8q-.68.23-4.24.88-3.57.65-7.25.65m38.09-90.99H890.1v-16.87h20.26Zm0 90.09H890.1v-84.89h20.26Zm33.56.9q-14.26 0-20.23-7.3t-5.97-21.45v-26.14q0-10.64 2.26-17.71 2.26-7.08 7.92-10.58 5.66-3.51 15.73-3.51 7.02 0 12.6 2.49 5.57 2.49 8.79 7.3 3.23 4.81 3.23 11.77v12.96H947.6v-11.89q0-2.94-.85-4.95t-3.68-2.01q-4.98 0-4.98 7.08v41.14q0 2.6 1.13 4.78t3.73 2.18q2.66 0 3.71-2.12 1.05-2.13 1.05-4.96v-14.26h20.54v14.83q0 7.02-3.14 12.03-3.14 5-8.63 7.66t-12.56 2.66m54.67 0q-25.12 0-25.12-25.46v-6.74h20.37v9.96q0 2.89 1.13 4.53t3.62 1.64q4.42 0 4.42-6.62 0-5.55-2.32-8.29-2.32-2.75-5.66-5.29l-10.81-8.32q-5.09-3.96-7.75-8.38-2.66-4.41-2.66-12.28 0-7.3 3.48-12.05t9.22-7.07 12.42-2.32q24.68 0 24.68 24.61v1.59h-20.94v-3.23q0-2.54-.88-4.92t-3.42-2.38q-4.3 0-4.3 4.53 0 4.58 3.62 7.19l12.56 9.16q5.89 4.25 9.88 10.08t3.99 15.5q0 12-6.82 18.28t-18.71 6.28"/><path fill="#d6c6a2" d="M591.61 792.667v-9.538c0-1.757-1.506-3.012-3.012-3.012h-23.092l-10.542-10.542v-5.522l5.773-5.773c3.765 2.76 8.032 4.267 12.801 4.267 5.773 0 11.044-2.26 15.311-6.275a3.18 3.18 0 0 0 0-4.518l-10.793-10.793 5.773-5.773c1.255-1.255 1.255-3.263 0-4.518s-3.263-1.255-4.518 0l-5.773 5.773-10.793-10.793a3.18 3.18 0 0 0-4.518 0 21.586 21.586 0 0 0-2.008 28.112l-6.777 6.777c-.502.502-1.004 1.506-1.004 2.259v6.777l-10.542 10.542h-20.08v-6.024h21.335c1.757 0 3.012-1.506 3.012-3.012v-12.3c0-1.756-1.506-3.011-3.012-3.011h-48.945c-1.757 0-3.012 1.506-3.012 3.012v12.299c0 1.757 1.255 3.012 3.012 3.012h21.335v18.574a15.56 15.56 0 0 0-12.299 15.06c0 8.534 7.028 15.31 15.311 15.31 8.534 0 15.311-7.027 15.311-15.31 0-3.514-1.255-6.526-3.012-9.036H538.9c-2.008 2.51-3.012 5.773-3.012 9.036 0 8.534 7.028 15.31 15.311 15.31 8.534 0 15.311-7.027 15.311-15.31 0-3.514-1.255-6.526-3.012-9.036h12.048c-2.008 2.51-3.012 5.773-3.012 9.036 0 8.534 7.028 15.31 15.311 15.31 8.534 0 15.311-7.027 15.311-15.31.502-7.28-4.769-13.554-11.546-15.06m-31.124-59.99 10.542 10.543 10.542 10.542c-2.51 1.506-5.27 2.51-8.283 2.51-4.016 0-8.032-1.506-10.793-4.518a15.06 15.06 0 0 1-4.518-10.542c0-3.012 1.004-6.024 2.51-8.534m-67.268 29.116h42.921v6.024h-42.92Zm92.117 30.622h-67.519v-6.024h67.52Zm-33.885-17.068 4.77 4.769h-9.539Zm-27.61 32.379c0 5.02-4.016 9.036-9.036 9.036s-9.036-4.016-9.036-9.036 4.016-9.036 9.036-9.036 9.036 4.016 9.036 9.036m36.897 0c0 5.02-4.016 9.036-9.036 9.036s-9.036-4.016-9.036-9.036 4.016-9.036 9.036-9.036 9.036 4.016 9.036 9.036m27.61 9.287c-5.02 0-9.036-4.016-9.036-9.036s4.016-9.036 9.036-9.036 9.036 4.016 9.036 9.036c.251 4.769-4.016 9.036-9.036 9.036"/></g><path fill="transparent" stroke="transparent" stroke-width="1.786" d="M250 527.679h1000V972.32H250z"/></g></svg>